<svg width="242" height="209" viewBox="0 0 242 209" fill="none" xmlns="http://www.w3.org/2000/svg">
<path d="M132.187 129.518H119.331C108.612 129.518 99.9255 120.832 99.9255 110.113V96.9633C99.9255 93.4497 97.0773 90.5926 93.5548 90.5926H80.4051C69.6866 90.5926 61 81.906 61 71.1875V58.3306C61 47.6121 69.6866 38.9255 80.4051 38.9255H87.9471C90.7154 38.9255 92.9603 41.1704 92.9603 43.9387C92.9603 46.7071 90.7154 48.9519 87.9471 48.9519H80.4051C75.2233 48.9519 71.0175 53.1577 71.0175 58.3395V71.1964C71.0175 76.3782 75.2233 80.5839 80.4051 80.5839H93.5548C102.605 80.5839 109.952 87.9218 109.952 96.9811V110.131C109.952 115.313 114.158 119.518 119.339 119.518H132.196C137.378 119.518 141.584 115.313 141.584 110.131V100.406C141.584 92.1986 138.39 84.4791 132.587 78.6762L111.877 57.958C104.185 50.2563 99.9433 40.0258 99.9433 29.1387V19.4051C99.9433 8.6866 108.63 0 119.348 0H132.205C142.924 0 151.61 8.6866 151.61 19.4051V32.5548C151.61 36.0684 154.459 38.9255 157.981 38.9255H171.131C181.849 38.9255 190.536 47.6121 190.536 58.3306V71.1875C190.536 81.906 181.849 90.5926 171.131 90.5926H163.598C160.829 90.5926 158.584 88.3477 158.584 85.5794C158.584 82.811 160.829 80.5662 163.598 80.5662H171.131C176.313 80.5662 180.518 76.3604 180.518 71.1786V58.3217C180.518 53.1399 176.313 48.9342 171.131 48.9342H157.963C148.913 48.9342 141.575 41.5963 141.575 32.5459V19.4051C141.575 14.2233 137.369 10.0175 132.187 10.0175H119.331C114.149 10.0175 109.943 14.2144 109.943 19.4051V29.1298C109.943 37.3373 113.137 45.0567 118.94 50.8596L139.65 71.569C147.351 79.2618 151.584 89.5012 151.584 100.388V110.113C151.593 120.823 142.906 129.518 132.187 129.518Z" fill="white"/>
<path d="M12.2806 179.842C12.2806 179.418 12.1175 179.018 11.7912 178.643C11.3508 178.202 10.9266 177.77 10.5188 177.346C10.1273 176.905 9.72762 176.473 9.31978 176.049V176.024C9.18928 175.894 9.09955 175.804 9.05061 175.755C9.00167 175.69 8.92011 175.592 8.80592 175.462C6.65256 177.566 5.57588 179.075 5.57588 179.989C5.57588 180.298 5.6656 180.617 5.84505 180.943C6.0245 181.269 6.27735 181.587 6.60362 181.897C7.27246 182.436 8.12891 182.705 9.17296 182.705C9.64605 182.705 10.0702 182.639 10.4454 182.509C10.8206 182.378 11.1224 182.191 11.3508 181.946C11.9707 181.277 12.2806 180.576 12.2806 179.842ZM17.3459 180.135C17.3459 181.343 17.1094 182.46 16.6363 183.488C16.1795 184.499 15.5596 185.372 14.7766 186.106C13.8957 186.905 12.9577 187.517 11.9625 187.941C10.9674 188.349 9.91522 188.553 8.80592 188.553C6.48943 188.553 4.53183 187.688 2.93313 185.959C1.41599 184.246 0.657421 182.126 0.657421 179.597C0.657421 178.357 1.01631 177.036 1.7341 175.633C2.45188 174.23 3.47147 172.811 4.79284 171.375C4.69496 171.261 4.60524 171.163 4.52367 171.081C4.44211 170.984 4.36054 170.902 4.27897 170.837C4.23003 170.788 4.16478 170.723 4.08321 170.641C4.01796 170.559 3.94455 170.486 3.86298 170.421C3.79773 170.339 3.73248 170.266 3.66722 170.201C3.61828 170.135 3.58566 170.095 3.56935 170.078L7.38666 166.236L15.3394 174.385C16.6771 175.82 17.3459 177.737 17.3459 180.135ZM29.3362 188.088H24.3443V159.752H29.3362V188.088ZM50.9432 188.088C49.9644 188.088 49.1161 187.974 48.3983 187.745C47.6805 187.517 47.0606 187.175 46.5386 186.718C46.4081 188.235 46.1144 189.638 45.6577 190.927C45.2009 192.215 44.6055 193.365 43.8714 194.377C42.8762 195.682 41.6772 196.693 40.2743 197.411C38.8876 198.129 37.3379 198.488 35.625 198.488H29.948L28.9447 192.444H35.4048C36.1878 192.444 36.9382 192.321 37.656 192.077C38.3738 191.832 39.0018 191.489 39.5402 191.049C40.1111 190.511 40.5598 189.931 40.886 189.312C41.2286 188.675 41.3999 188.047 41.3999 187.427V173.186H46.5386V180.086C46.5386 181.294 48.0068 181.946 50.9432 182.044V188.088ZM64.7687 179.01C64.7687 176.726 63.7817 175.584 61.8078 175.584C59.7687 175.584 58.7491 176.824 58.7491 179.303C58.7491 181.538 59.7687 182.656 61.8078 182.656C63.7817 182.656 64.7687 181.44 64.7687 179.01ZM73.1374 188.088C72.3054 188.088 71.5795 188.047 70.9596 187.966C70.3397 187.868 69.8503 187.745 69.4914 187.599C69.2141 187.468 68.896 187.248 68.5371 186.938C68.1945 186.612 67.8764 186.261 67.5827 185.886C66.865 186.783 66.0248 187.476 65.0623 187.966C64.0999 188.439 63.0313 188.675 61.8568 188.675C60.829 188.675 59.736 188.341 58.5778 187.672C58.1863 187.444 57.8192 187.199 57.4767 186.938C57.1504 186.661 56.8404 186.334 56.5468 185.959C56.0574 186.612 55.2417 187.126 54.0998 187.501C52.9742 187.86 51.5305 188.055 49.7686 188.088V182.044C52.2156 182.044 53.6022 181.913 53.9285 181.652L53.8551 181.922C53.9204 181.791 53.9693 181.506 54.0019 181.065C54.0345 180.608 54.0509 179.972 54.0509 179.157C54.0509 177.77 54.214 176.522 54.5403 175.413C54.8665 174.303 55.3315 173.349 55.935 172.55C56.6855 171.652 57.5745 170.951 58.6023 170.445C59.63 169.94 60.7719 169.687 62.0281 169.687C64.2956 169.687 66.1635 170.665 67.6317 172.623C68.8062 174.32 69.4343 176.489 69.5159 179.132C69.5159 179.899 69.5403 180.421 69.5893 180.698C69.6219 180.975 69.7035 181.212 69.834 181.408C69.9808 181.604 70.1684 181.742 70.3968 181.824C70.4947 181.873 70.7638 181.913 71.2043 181.946C71.6611 181.979 72.3054 182.028 73.1374 182.093V188.088ZM93.4475 181.922C93.4475 181.416 93.1865 180.747 92.6644 179.915C92.1424 179.067 91.3431 178.039 90.2664 176.832C90.299 177.011 90.3153 177.191 90.3153 177.37C90.3153 177.533 90.3153 177.705 90.3153 177.884C90.3153 180.184 89.8341 181.873 88.8716 182.949C89.2957 183.113 89.7117 183.243 90.1196 183.341C90.5274 183.439 90.9271 183.488 91.3186 183.488C92.7379 183.488 93.4475 182.966 93.4475 181.922ZM85.3724 177.639C85.3724 177.052 85.0788 176.53 84.4915 176.073C83.9858 175.617 83.2761 175.388 82.3626 175.388C81.7101 175.388 81.2533 175.568 80.9923 175.927C80.7802 176.155 80.6334 176.391 80.5518 176.636C80.4703 176.865 80.4295 177.101 80.4295 177.346C80.4295 177.949 80.666 178.504 81.1391 179.01C81.6122 179.499 82.2892 179.94 83.1701 180.331C83.8879 179.972 84.4344 179.573 84.8096 179.132C85.1848 178.675 85.3724 178.178 85.3724 177.639ZM98.8064 181.628C98.8064 182.672 98.6188 183.667 98.2436 184.613C97.8684 185.56 97.3219 186.424 96.6041 187.207C95.8374 188.023 95.0299 188.651 94.1816 189.091C93.3496 189.515 92.4768 189.728 91.5633 189.728C90.4703 189.728 89.206 189.467 87.7705 188.945C86.3349 188.422 84.7525 187.648 83.0233 186.62C82.1097 187.044 81.1554 187.378 80.1603 187.623C79.1815 187.852 78.1782 187.974 77.1505 187.99C76.7753 187.99 76.4001 187.998 76.0249 188.015C75.6497 188.015 75.2663 188.023 74.8748 188.039C74.6953 188.039 74.4996 188.047 74.2875 188.064C74.0754 188.064 73.8552 188.064 73.6268 188.064C73.3984 188.064 73.1374 188.072 72.8438 188.088C72.5501 188.088 72.3136 188.096 72.1342 188.113V182.044H76.8813C76.4246 181.261 76.0983 180.494 75.9025 179.744C75.7068 178.977 75.6089 178.178 75.6089 177.346C75.6089 175.062 76.2696 173.235 77.591 171.864C79.0102 170.396 80.7313 169.662 82.7541 169.662C83.2272 169.662 83.684 169.719 84.1244 169.833L88.0641 166.212C95.2256 173.031 98.8064 178.17 98.8064 181.628ZM130.544 167.093C130.544 167.484 130.471 167.851 130.324 168.194C130.177 168.52 129.973 168.806 129.712 169.05C129.451 169.295 129.141 169.491 128.782 169.638C128.423 169.768 128.04 169.833 127.632 169.833C125.446 169.833 124.353 168.92 124.353 167.093C124.353 165.347 125.348 164.475 127.338 164.475C129.475 164.475 130.544 165.347 130.544 167.093ZM138.888 167.093C138.888 167.876 138.595 168.537 138.007 169.075C137.404 169.581 136.686 169.833 135.854 169.833C133.684 169.833 132.599 168.92 132.599 167.093C132.599 165.347 133.611 164.475 135.634 164.475C137.803 164.475 138.888 165.347 138.888 167.093ZM152.567 188.088C150.854 188.088 149.427 187.966 148.285 187.721C147.143 187.46 146.229 187.06 145.544 186.522C144.108 187.566 142.779 188.088 141.555 188.088H119.875C118.994 188.088 118.162 187.876 117.379 187.452C116.596 187.028 115.862 186.416 115.177 185.617C114.655 184.931 114.239 184.157 113.929 183.292C113.635 182.411 113.488 181.457 113.488 180.429V173.186H118.554V179.817C118.554 180.633 118.749 181.212 119.141 181.555C119.532 181.881 120.234 182.044 121.245 182.044H140.356C141.303 182.044 141.955 181.881 142.314 181.555C142.673 181.212 142.852 180.633 142.852 179.817V173.186H148.015V179.817C148.015 181.302 149.533 182.044 152.567 182.044V188.088ZM167.714 179.157C167.714 176.775 166.702 175.584 164.68 175.584C162.608 175.584 161.572 176.824 161.572 179.303C161.572 181.538 162.608 182.656 164.68 182.656C166.702 182.656 167.714 181.489 167.714 179.157ZM172.314 179.401C172.314 180.706 172.143 181.897 171.8 182.974C171.474 184.051 171.017 184.972 170.43 185.739C169.68 186.701 168.823 187.436 167.861 187.941C166.898 188.431 165.838 188.675 164.68 188.675C163.88 188.675 163.073 188.537 162.257 188.259C161.458 187.966 160.699 187.582 159.981 187.109C158.497 187.664 156.033 187.99 152.591 188.088V182.044C153.733 182.044 154.655 182.011 155.356 181.946C156.058 181.881 156.523 181.791 156.751 181.677C156.784 181.449 156.8 181.13 156.8 180.723C156.817 180.298 156.841 179.768 156.874 179.132C157.004 176.147 157.738 173.83 159.076 172.183C160.414 170.519 162.339 169.687 164.851 169.687C167.184 169.687 169.092 170.731 170.577 172.819C171.735 174.515 172.314 176.71 172.314 179.401ZM191.694 182.117C192.216 182.068 192.641 182.003 192.967 181.922C193.309 181.824 193.538 181.669 193.652 181.457V181.481C193.734 181.334 193.791 181.057 193.823 180.649C193.872 180.225 193.897 179.679 193.897 179.01V159.752H199.035V179.426C199.035 179.866 199.084 180.25 199.182 180.576C199.28 180.902 199.459 181.179 199.72 181.408C199.982 181.62 200.324 181.783 200.748 181.897C201.189 181.995 201.743 182.044 202.412 182.044H203.587V188.088C200.977 187.843 199.003 187.06 197.665 185.739L197.616 185.69L197.592 185.641L197.445 185.445C196.711 186.31 195.871 186.971 194.924 187.427C193.995 187.868 192.983 188.088 191.89 188.088H188.171C182.983 188.088 180.153 186.098 179.68 182.117C179.68 182.117 179.671 182.117 179.655 182.117H191.694ZM179.606 178.838V159.752H184.525V178.838H179.606ZM236.376 180.551C236.376 181.71 236.238 182.754 235.96 183.683C235.699 184.613 235.349 185.388 234.908 186.008C233.668 187.542 232.029 188.308 229.99 188.308C229.125 188.308 228.204 188.096 227.225 187.672C226.246 187.248 225.316 186.644 224.435 185.861C223.619 186.726 222.796 187.346 221.964 187.721C221.148 188.08 220.308 188.259 219.443 188.259C219.035 188.259 218.595 188.227 218.122 188.161C217.649 188.08 217.168 187.9 216.678 187.623C216.189 187.33 215.699 186.995 215.21 186.62C214.737 186.228 214.272 185.804 213.815 185.347C212.967 186.277 212.086 186.971 211.172 187.427C210.275 187.868 209.362 188.088 208.432 188.088H202.755V182.044H208.163C209.729 182.044 210.512 181.326 210.512 179.891V173.186H215.577V180.209C215.577 180.812 215.863 181.4 216.433 181.971V181.946C216.923 182.419 217.649 182.656 218.611 182.656C220.21 182.656 221.009 182.117 221.009 181.041V173.186H225.952V180.209C225.952 180.78 226.254 181.367 226.858 181.971V181.946C227.331 182.419 228.057 182.656 229.036 182.656C230.585 182.656 231.36 182.117 231.36 181.041V173.186H236.376V180.551Z" fill="white"/>
</svg>
