<svg width="24" height="24" viewBox="0 0 24 24" fill="none" xmlns="http://www.w3.org/2000/svg">
<g clip-path="url(#clip0_1_3196)">
<path d="M2.03 18.33C2.03 18.69 2.11 19.06 2.28 19.42C2.45 19.78 2.67 20.12 2.96 20.44C3.45 20.98 3.99 21.37 4.6 21.62C5.2 21.87 5.85 22 6.55 22C7.57 22 8.66 21.76 9.81 21.27C10.96 20.78 12.11 20.12 13.25 19.29C14.4 18.45 15.49 17.52 16.53 16.49C17.56 15.45 18.49 14.36 19.32 13.22C20.14 12.08 20.8 10.94 21.28 9.81C21.76 8.67 22 7.58 22 6.54C22 5.86 21.88 5.21 21.64 4.61C21.4 4 21.02 3.44 20.49 2.94C19.85 2.31 19.15 2 18.41 2C18.13 2 17.85 2.06 17.6 2.18C17.34 2.3 17.11 2.48 16.93 2.74L14.61 6.01C14.43 6.26 14.3 6.49 14.21 6.71C14.12 6.92 14.07 7.13 14.07 7.32C14.07 7.56 14.14 7.8 14.28 8.03C14.41 8.26 14.6 8.5 14.84 8.74L15.6 9.53C15.71 9.64 15.76 9.77 15.76 9.93C15.76 10.01 15.75 10.08 15.73 10.16C15.7 10.24 15.67 10.3 15.65 10.36C15.47 10.69 15.16 11.12 14.72 11.64C14.27 12.16 13.79 12.69 13.27 13.22C12.73 13.75 12.21 14.24 11.68 14.69C11.16 15.13 10.73 15.43 10.39 15.61C10.34 15.63 10.28 15.66 10.21 15.69C10.13 15.72 10.05 15.73 9.96 15.73C9.79 15.73 9.66 15.67 9.55 15.56L8.79 14.81C8.54 14.56 8.3 14.37 8.07 14.25C7.84 14.11 7.61 14.04 7.36 14.04C7.17 14.04 6.97 14.08 6.75 14.17C6.53 14.26 6.3 14.39 6.05 14.56L2.74 16.91C2.48 17.09 2.3 17.3 2.19 17.55C2.09 17.8 2.03 18.05 2.03 18.33Z" stroke="#199A8E" stroke-width="2" stroke-miterlimit="10"/>
</g>
<defs>
<clipPath id="clip0_1_3196">
<rect width="24" height="24" fill="white" transform="matrix(-1 0 0 1 24 0)"/>
</clipPath>
</defs>
</svg>
