<svg width="15" height="15" viewBox="0 0 15 15" fill="none" xmlns="http://www.w3.org/2000/svg">
<path fill-rule="evenodd" clip-rule="evenodd" d="M9.4375 1.25H5.58125C3.8875 1.25 2.51875 1.91875 2.5 3.61875V13.1062C2.5 13.2125 2.525 13.3187 2.575 13.4125C2.65625 13.5625 2.79375 13.675 2.9625 13.725C3.125 13.775 3.30625 13.75 3.45625 13.6625L7.50625 11.6375L11.5625 13.6625C11.6556 13.7119 11.7625 13.7437 11.8687 13.7437C12.2188 13.7437 12.5 13.4562 12.5 13.1062V3.61875C12.5 1.91875 11.125 1.25 9.4375 1.25ZM9.8625 6.0125H5.15625C4.8875 6.0125 4.66875 5.79312 4.66875 5.51875C4.66875 5.24375 4.8875 5.025 5.15625 5.025H9.8625C10.1312 5.025 10.35 5.24375 10.35 5.51875C10.35 5.79312 10.1312 6.0125 9.8625 6.0125Z" fill="#199A8E"/>
</svg>
