<svg width="32" height="32" viewBox="0 0 32 32" fill="none" xmlns="http://www.w3.org/2000/svg">
<path fill-rule="evenodd" clip-rule="evenodd" d="M11.0456 22.6313H20.6723C21.2243 22.6313 21.6723 22.1833 21.6723 21.6313C21.6723 21.0793 21.2243 20.6313 20.6723 20.6313H11.0456C10.4936 20.6313 10.0456 21.0793 10.0456 21.6313C10.0456 22.1833 10.4936 22.6313 11.0456 22.6313Z" fill="#199A8E"/>
<path fill-rule="evenodd" clip-rule="evenodd" d="M11.0456 17.0493H20.6723C21.2243 17.0493 21.6723 16.6013 21.6723 16.0493C21.6723 15.4973 21.2243 15.0493 20.6723 15.0493H11.0456C10.4936 15.0493 10.0456 15.4973 10.0456 16.0493C10.0456 16.6013 10.4936 17.0493 11.0456 17.0493Z" fill="#199A8E"/>
<path fill-rule="evenodd" clip-rule="evenodd" d="M16.9993 11.4805H20.6727C21.2247 11.4805 21.6727 11.0325 21.6727 10.4805C21.6727 9.92847 21.2247 9.48047 20.6727 9.48047H16.9993C16.4473 9.48047 15.9993 9.92847 15.9993 10.4805C15.9993 11.0325 16.4473 11.4805 16.9993 11.4805Z" fill="#199A8E"/>
<mask id="mask0_13_36" style="mask-type:luminance" maskUnits="userSpaceOnUse" x="3" y="2" width="25" height="28">
<path fill-rule="evenodd" clip-rule="evenodd" d="M28 2.6665H3.7804V29.2129H28V2.6665Z" fill="white"/>
</mask>
<g mask="url(#mask0_13_36)">
<path fill-rule="evenodd" clip-rule="evenodd" d="M10.7884 4.6665L21.0404 4.67184C24.1444 4.6905 26.0004 6.6105 26.0004 9.80917V22.0705C26.0004 25.2905 24.1271 27.2132 20.9924 27.2132L10.7404 27.2092C7.6364 27.1905 5.7804 25.2678 5.7804 22.0705V9.80917C5.7804 6.58917 7.6524 4.6665 10.7884 4.6665ZM20.9911 29.2132C25.1831 29.2132 28.0004 26.3425 28.0004 22.0705V9.80917C28.0004 5.4985 25.2711 2.69717 21.0471 2.67184L10.7897 2.6665H10.7884C6.5964 2.6665 3.7804 5.53717 3.7804 9.80917V22.0705C3.7804 26.3798 6.50973 29.1825 10.7337 29.2092L20.9911 29.2132Z" fill="#199A8E"/>
</g>
</svg>
