<svg width="13" height="13" viewBox="0 0 13 13" fill="none" xmlns="http://www.w3.org/2000/svg">
<path fill-rule="evenodd" clip-rule="evenodd" d="M11.1041 5.58895C11.1041 3.09735 9.02202 1.0835 6.50351 1.0835C3.97789 1.0835 1.89579 3.09735 1.89579 5.58895C1.89579 6.8445 2.35241 8.01013 3.10398 8.9981C3.9331 10.0879 4.95504 11.0374 6.10533 11.7827C6.3686 11.955 6.60619 11.968 6.89513 11.7827C8.05198 11.0374 9.07391 10.0879 9.89594 8.9981C10.6481 8.01013 11.1041 6.8445 11.1041 5.58895ZM8.01975 5.72922C8.01975 6.56391 7.33865 7.22039 6.50351 7.22039C5.66783 7.22039 4.98017 6.56391 4.98017 5.72922C4.98017 4.90104 5.66783 4.2126 6.50351 4.2126C7.33865 4.2126 8.01975 4.90104 8.01975 5.72922Z" fill="#ADADAD"/>
</svg>
