<svg width="18" height="18" viewBox="0 0 18 18" fill="none" xmlns="http://www.w3.org/2000/svg">
<mask id="mask0_1_2490" style="mask-type:luminance" maskUnits="userSpaceOnUse" x="1" y="1" width="16" height="16">
<path fill-rule="evenodd" clip-rule="evenodd" d="M16.5 1.5H1.8924V16.1077H16.5V1.5Z" fill="white"/>
</mask>
<g mask="url(#mask0_1_2490)">
<path fill-rule="evenodd" clip-rule="evenodd" d="M9.1959 2.625C12.6032 2.625 15.3752 5.39625 15.3752 8.8035C15.3752 12.2107 12.6032 14.9827 9.1959 14.9827C5.7894 14.9827 3.0174 12.2107 3.0174 8.8035C3.0174 5.39625 5.7894 2.625 9.1959 2.625ZM9.1959 16.1077C13.2234 16.1077 16.5002 12.831 16.5002 8.8035C16.5002 4.776 13.2234 1.5 9.1959 1.5C5.1684 1.5 1.8924 4.776 1.8924 8.8035C1.8924 12.831 5.1684 16.1077 9.1959 16.1077Z" fill="#ADADAD"/>
</g>
<mask id="mask1_1_2490" style="mask-type:luminance" maskUnits="userSpaceOnUse" x="1" y="13" width="5" height="5">
<path fill-rule="evenodd" clip-rule="evenodd" d="M5.07004 13.2803H1.302V17.0413H5.07004V13.2803Z" fill="white"/>
</mask>
<g mask="url(#mask1_1_2490)">
<path fill-rule="evenodd" clip-rule="evenodd" d="M1.86435 17.0413C2.0076 17.0413 2.1516 16.9866 2.26185 16.8771L4.90485 14.2416C5.1246 14.0218 5.12535 13.6656 4.9056 13.4458C4.6866 13.2246 4.33035 13.2261 4.10985 13.4443L1.46685 16.0806C1.2471 16.3003 1.24635 16.6558 1.4661 16.8756C1.5756 16.9866 1.72035 17.0413 1.86435 17.0413Z" fill="#ADADAD"/>
</g>
</svg>
