<svg width="10" height="10" viewBox="0 0 10 10" fill="none" xmlns="http://www.w3.org/2000/svg">
<path d="M2.53396 5.9665C2.64188 6.07109 2.69146 6.22234 2.66688 6.37067L2.29646 8.42067C2.26521 8.59442 2.33854 8.77025 2.48396 8.87067C2.62646 8.97484 2.81604 8.98734 2.97146 8.904L4.81688 7.9415C4.88104 7.90734 4.95229 7.889 5.02521 7.88692H5.13813C5.17729 7.89275 5.21563 7.90525 5.25063 7.92442L7.09646 8.8915C7.18771 8.93734 7.29104 8.95359 7.39229 8.93734C7.63896 8.89067 7.80354 8.65567 7.76313 8.40775L7.39229 6.35775C7.36771 6.20817 7.41729 6.05609 7.52521 5.94984L9.02979 4.4915C9.15563 4.36942 9.19938 4.18609 9.14188 4.02067C9.08604 3.85567 8.94354 3.73525 8.77146 3.70817L6.70063 3.40775C6.54313 3.3915 6.40479 3.29567 6.33396 3.154L5.42146 1.28317C5.39979 1.2415 5.37188 1.20317 5.33813 1.17067L5.30063 1.1415C5.28104 1.11984 5.25854 1.10192 5.23354 1.08734L5.18813 1.07067L5.11729 1.0415H4.94188C4.78521 1.05775 4.64729 1.1515 4.57521 1.2915L3.65063 3.154C3.58396 3.29025 3.45438 3.38484 3.30479 3.40775L1.23396 3.70817C1.05896 3.73317 0.91271 3.854 0.854794 4.02067C0.80021 4.18775 0.847293 4.37109 0.975626 4.4915L2.53396 5.9665Z" fill="#199A8E"/>
</svg>
