<svg width="124" height="110" viewBox="0 0 124 110" fill="none" xmlns="http://www.w3.org/2000/svg">
<path d="M66.8226 66.3637H60.2349C54.7429 66.3637 50.292 61.9128 50.292 56.4207V49.683C50.292 47.8826 48.8326 46.4187 47.0276 46.4187H40.2899C34.7978 46.4187 30.3469 41.9678 30.3469 36.4757V29.888C30.3469 24.396 34.7978 19.945 40.2899 19.945H44.1543C45.5728 19.945 46.723 21.0953 46.723 22.5137C46.723 23.9322 45.5728 25.0825 44.1543 25.0825H40.2899C37.6348 25.0825 35.4798 27.2374 35.4798 29.8925V36.4803C35.4798 39.1354 37.6348 41.2904 40.2899 41.2904H47.0276C51.665 41.2904 55.4294 45.0502 55.4294 49.6921V56.4298C55.4294 59.0849 57.5844 61.2399 60.2395 61.2399H66.8272C69.4823 61.2399 71.6373 59.0849 71.6373 56.4298V51.447C71.6373 47.2416 70.0006 43.2862 67.0272 40.3129L56.416 29.697C52.4742 25.7508 50.3011 20.5088 50.3011 14.9304V9.94296C50.3011 4.45092 54.752 0 60.244 0H66.8317C72.3238 0 76.7747 4.45092 76.7747 9.94296V16.6807C76.7747 18.4811 78.2341 19.945 80.039 19.945H86.7768C92.2688 19.945 96.7197 24.396 96.7197 29.888V36.4757C96.7197 41.9678 92.2688 46.4187 86.7768 46.4187H82.9169C81.4984 46.4187 80.3481 45.2684 80.3481 43.85C80.3481 42.4315 81.4984 41.2813 82.9169 41.2813H86.7768C89.4319 41.2813 91.5868 39.1263 91.5868 36.4712V29.8834C91.5868 27.2283 89.4319 25.0734 86.7768 25.0734H80.0299C75.3926 25.0734 71.6327 21.3135 71.6327 16.6762V9.94296C71.6327 7.28787 69.4777 5.13288 66.8226 5.13288H60.2349C57.5798 5.13288 55.4248 7.28332 55.4248 9.94296V14.9258C55.4248 19.1312 57.0615 23.0866 60.0349 26.0599L70.6462 36.6712C74.5924 40.6129 76.7611 45.8595 76.7611 51.4379V56.4207C76.7656 61.9082 72.3147 66.3637 66.8226 66.3637Z" fill="#199A8E"/>
<path d="M6.78009 95.2826C6.78009 95.0653 6.6965 94.8605 6.52932 94.6682C6.30364 94.4425 6.08631 94.221 5.87734 94.0037C5.67673 93.778 5.47194 93.5565 5.26297 93.3392V93.3267C5.1961 93.2598 5.15013 93.2138 5.12505 93.1887C5.09997 93.1553 5.05818 93.1051 4.99967 93.0383C3.89631 94.1166 3.34463 94.8897 3.34463 95.3578C3.34463 95.5167 3.39061 95.6796 3.48255 95.8468C3.5745 96.014 3.70406 96.177 3.87124 96.3358C4.21394 96.6116 4.65278 96.7496 5.18774 96.7496C5.43015 96.7496 5.64747 96.7161 5.83972 96.6493C6.03198 96.5824 6.18661 96.4863 6.30364 96.3609C6.62127 96.0182 6.78009 95.6587 6.78009 95.2826ZM9.37548 95.4331C9.37548 96.0516 9.25428 96.6242 9.01188 97.1508C8.77783 97.669 8.4602 98.1162 8.05898 98.4924C7.6076 98.902 7.12697 99.2154 6.61709 99.4327C6.1072 99.6417 5.56806 99.7462 4.99967 99.7462C3.81272 99.7462 2.80967 99.3032 1.99051 98.4171C1.21315 97.5395 0.824466 96.4528 0.824466 95.1572C0.824466 94.522 1.00836 93.8449 1.37614 93.126C1.74393 92.4072 2.26635 91.68 2.94341 90.9444C2.89326 90.8859 2.84729 90.8357 2.80549 90.7939C2.7637 90.7438 2.72191 90.702 2.68011 90.6686C2.65504 90.6435 2.6216 90.6101 2.57981 90.5683C2.54637 90.5265 2.50876 90.4889 2.46696 90.4554C2.43353 90.4136 2.40009 90.376 2.36666 90.3426C2.34158 90.3091 2.32486 90.2882 2.31651 90.2799L4.27246 88.3114L8.34735 92.4866C9.03277 93.2222 9.37548 94.2043 9.37548 95.4331ZM15.5192 99.508H12.9614V84.9888H15.5192V99.508ZM26.5904 99.508C26.0888 99.508 25.6542 99.4494 25.2864 99.3324C24.9186 99.2154 24.601 99.0399 24.3335 98.8058C24.2666 99.5832 24.1162 100.302 23.8821 100.962C23.6481 101.623 23.343 102.212 22.9668 102.73C22.4569 103.399 21.8426 103.917 21.1237 104.285C20.4132 104.653 19.6191 104.837 18.7415 104.837H15.8326L15.3186 101.74H18.6286C19.0299 101.74 19.4144 101.677 19.7821 101.552C20.1499 101.426 20.4717 101.251 20.7476 101.025C21.0401 100.749 21.27 100.453 21.4372 100.135C21.6127 99.8089 21.7005 99.4871 21.7005 99.1694V91.8722H24.3335V95.408C24.3335 96.0265 25.0858 96.3609 26.5904 96.411V99.508ZM33.6744 94.8563C33.6744 93.6861 33.1687 93.101 32.1573 93.101C31.1124 93.101 30.59 93.7362 30.59 95.0068C30.59 96.1519 31.1124 96.7245 32.1573 96.7245C33.1687 96.7245 33.6744 96.1018 33.6744 94.8563ZM37.9625 99.508C37.5362 99.508 37.1642 99.4871 36.8466 99.4453C36.5289 99.3951 36.2782 99.3324 36.0943 99.2572C35.9522 99.1903 35.7892 99.0775 35.6053 98.9187C35.4297 98.7515 35.2668 98.5718 35.1163 98.3795C34.7485 98.8393 34.318 99.1945 33.8249 99.4453C33.3317 99.6877 32.7842 99.8089 32.1824 99.8089C31.6558 99.8089 31.0957 99.6375 30.5023 99.2948C30.3016 99.1778 30.1136 99.0524 29.938 98.9187C29.7709 98.7766 29.612 98.6094 29.4616 98.4171C29.2108 98.7515 28.7929 99.0148 28.2078 99.207C27.631 99.3909 26.8913 99.4912 25.9885 99.508V96.411C27.2423 96.411 27.9528 96.3442 28.12 96.2104L28.0824 96.3483C28.1158 96.2815 28.1409 96.1352 28.1576 95.9095C28.1743 95.6755 28.1827 95.3495 28.1827 94.9315C28.1827 94.221 28.2663 93.5816 28.4335 93.0132C28.6006 92.4448 28.8389 91.9558 29.1481 91.5462C29.5326 91.0865 29.9882 90.7271 30.5148 90.468C31.0414 90.2088 31.6265 90.0793 32.2701 90.0793C33.432 90.0793 34.3891 90.5808 35.1414 91.5839C35.7432 92.4532 36.065 93.5649 36.1068 94.919C36.1068 95.3119 36.1193 95.5793 36.1444 95.7214C36.1611 95.8635 36.2029 95.9847 36.2698 96.085C36.345 96.1854 36.4412 96.2564 36.5582 96.2982C36.6083 96.3233 36.7463 96.3442 36.9719 96.3609C37.206 96.3776 37.5362 96.4027 37.9625 96.4361V99.508ZM48.3691 96.3483C48.3691 96.0892 48.2354 95.7465 47.9679 95.3202C47.7004 94.8856 47.2908 94.359 46.7392 93.7404C46.7559 93.8324 46.7642 93.9243 46.7642 94.0163C46.7642 94.0998 46.7642 94.1876 46.7642 94.2796C46.7642 95.4581 46.5176 96.3233 46.0245 96.8749C46.2418 96.9585 46.455 97.0254 46.6639 97.0756C46.8729 97.1257 47.0777 97.1508 47.2783 97.1508C48.0055 97.1508 48.3691 96.8833 48.3691 96.3483ZM44.2315 94.1542C44.2315 93.8533 44.0811 93.5858 43.7802 93.3517C43.521 93.1177 43.1574 93.0007 42.6893 93.0007C42.355 93.0007 42.1209 93.0926 41.9872 93.2765C41.8785 93.3935 41.8033 93.5147 41.7615 93.6401C41.7197 93.7571 41.6988 93.8783 41.6988 94.0037C41.6988 94.313 41.82 94.5972 42.0624 94.8563C42.3048 95.1071 42.6517 95.3328 43.1031 95.5334C43.4709 95.3495 43.7509 95.1447 43.9431 94.919C44.1354 94.685 44.2315 94.43 44.2315 94.1542ZM51.115 96.1979C51.115 96.7329 51.0188 97.2427 50.8266 97.7275C50.6343 98.2124 50.3543 98.6554 49.9865 99.0566C49.5937 99.4745 49.1799 99.7963 48.7453 100.022C48.319 100.239 47.8718 100.348 47.4037 100.348C46.8436 100.348 46.1958 100.214 45.4603 99.9468C44.7247 99.6793 43.9139 99.2823 43.0279 98.7557C42.5598 98.973 42.0708 99.1444 41.5609 99.2697C41.0594 99.3868 40.5453 99.4494 40.0187 99.4578C39.8265 99.4578 39.6342 99.462 39.442 99.4703C39.2497 99.4703 39.0533 99.4745 38.8527 99.4829C38.7607 99.4829 38.6604 99.4871 38.5517 99.4954C38.4431 99.4954 38.3302 99.4954 38.2132 99.4954C38.0962 99.4954 37.9625 99.4996 37.812 99.508C37.6615 99.508 37.5403 99.5121 37.4484 99.5205V96.411H39.8808C39.6467 96.0098 39.4796 95.617 39.3793 95.2325C39.279 94.8396 39.2288 94.43 39.2288 94.0037C39.2288 92.8335 39.5673 91.8973 40.2444 91.1952C40.9716 90.4429 41.8535 90.0667 42.8899 90.0667C43.1323 90.0667 43.3664 90.096 43.5921 90.1545L45.6107 88.2989C49.2802 91.7928 51.115 94.4258 51.115 96.1979ZM67.3769 88.7502C67.3769 88.9508 67.3393 89.1389 67.2641 89.3144C67.1889 89.4816 67.0844 89.6279 66.9506 89.7533C66.8169 89.8787 66.6581 89.979 66.4742 90.0542C66.2903 90.1211 66.0939 90.1545 65.8849 90.1545C64.7648 90.1545 64.2048 89.6864 64.2048 88.7502C64.2048 87.8558 64.7147 87.4086 65.7344 87.4086C66.8294 87.4086 67.3769 87.8558 67.3769 88.7502ZM71.6525 88.7502C71.6525 89.1515 71.502 89.49 71.2011 89.7658C70.8918 90.0249 70.524 90.1545 70.0977 90.1545C68.986 90.1545 68.4302 89.6864 68.4302 88.7502C68.4302 87.8558 68.9484 87.4086 69.9849 87.4086C71.0966 87.4086 71.6525 87.8558 71.6525 88.7502ZM78.6613 99.508C77.7836 99.508 77.0522 99.4453 76.4671 99.3199C75.882 99.1861 75.4139 98.9814 75.0628 98.7055C74.3273 99.2405 73.646 99.508 73.0191 99.508H61.9103C61.4589 99.508 61.0326 99.3993 60.6314 99.182C60.2302 98.9646 59.8541 98.6512 59.503 98.2416C59.2355 97.8905 59.0224 97.4935 58.8635 97.0505C58.7131 96.5991 58.6379 96.1101 58.6379 95.5835V91.8722H61.2333V95.2701C61.2333 95.688 61.3336 95.9847 61.5342 96.1603C61.7348 96.3275 62.0942 96.411 62.6125 96.411H72.4047C72.8896 96.411 73.2239 96.3275 73.4078 96.1603C73.5917 95.9847 73.6836 95.688 73.6836 95.2701V91.8722H76.3292V95.2701C76.3292 96.0307 77.1065 96.411 78.6613 96.411V99.508ZM86.4224 94.9315C86.4224 93.7112 85.9041 93.101 84.8677 93.101C83.8061 93.101 83.2753 93.7362 83.2753 95.0068C83.2753 96.1519 83.8061 96.7245 84.8677 96.7245C85.9041 96.7245 86.4224 96.1268 86.4224 94.9315ZM88.7796 95.0569C88.7796 95.7256 88.6918 96.3358 88.5163 96.8875C88.3491 97.4392 88.115 97.9114 87.8141 98.3043C87.4296 98.7975 86.9908 99.1736 86.4976 99.4327C86.0045 99.6835 85.4611 99.8089 84.8677 99.8089C84.4581 99.8089 84.0443 99.7378 83.6264 99.5957C83.2168 99.4453 82.8281 99.2488 82.4603 99.0064C81.6997 99.2906 80.4375 99.4578 78.6738 99.508V96.411C79.2589 96.411 79.7312 96.3943 80.0906 96.3609C80.4501 96.3275 80.6883 96.2815 80.8053 96.223C80.822 96.1059 80.8304 95.9429 80.8304 95.734C80.8387 95.5167 80.8513 95.245 80.868 94.919C80.9349 93.3893 81.311 92.2024 81.9964 91.3582C82.6818 90.5056 83.6682 90.0793 84.9554 90.0793C86.1507 90.0793 87.1287 90.6142 87.8894 91.6842C88.4828 92.5535 88.7796 93.6777 88.7796 95.0569ZM98.7098 96.4487C98.9773 96.4236 99.1946 96.3901 99.3618 96.3483C99.5373 96.2982 99.6543 96.2188 99.7128 96.1101V96.1227C99.7546 96.0474 99.7839 95.9053 99.8006 95.6964C99.8257 95.479 99.8382 95.199 99.8382 94.8563V84.9888H102.471V95.0695C102.471 95.2951 102.496 95.4916 102.546 95.6587C102.597 95.8259 102.689 95.968 102.822 96.085C102.956 96.1937 103.132 96.2773 103.349 96.3358C103.575 96.386 103.859 96.411 104.201 96.411H104.803V99.508C103.466 99.3826 102.455 98.9814 101.769 98.3043L101.744 98.2792L101.731 98.2541L101.656 98.1538C101.28 98.5969 100.85 98.9354 100.365 99.1694C99.8884 99.3951 99.3701 99.508 98.8101 99.508H96.9043C94.2462 99.508 92.796 98.4882 92.5535 96.4487C92.5535 96.4487 92.5494 96.4487 92.541 96.4487H98.7098ZM92.5159 94.7685V84.9888H95.0361V94.7685H92.5159ZM121.604 95.6462C121.604 96.2397 121.533 96.7746 121.391 97.2511C121.258 97.7275 121.078 98.1246 120.852 98.4422C120.217 99.2279 119.377 99.6208 118.332 99.6208C117.889 99.6208 117.417 99.5121 116.915 99.2948C116.414 99.0775 115.937 98.7682 115.486 98.367C115.068 98.81 114.646 99.1276 114.219 99.3199C113.802 99.5038 113.371 99.5957 112.928 99.5957C112.719 99.5957 112.493 99.579 112.251 99.5456C112.009 99.5038 111.762 99.4118 111.511 99.2697C111.26 99.1193 111.01 98.9479 110.759 98.7557C110.517 98.5551 110.278 98.3377 110.044 98.1037C109.61 98.5801 109.158 98.9354 108.69 99.1694C108.23 99.3951 107.762 99.508 107.286 99.508H104.377V96.411H107.148C107.95 96.411 108.352 96.0433 108.352 95.3077V91.8722H110.947V95.4707C110.947 95.78 111.093 96.0809 111.386 96.3734V96.3609C111.637 96.6033 112.009 96.7245 112.502 96.7245C113.321 96.7245 113.73 96.4487 113.73 95.897V91.8722H116.263V95.4707C116.263 95.7632 116.418 96.0641 116.727 96.3734V96.3609C116.969 96.6033 117.341 96.7245 117.843 96.7245C118.637 96.7245 119.034 96.4487 119.034 95.897V91.8722H121.604V95.6462Z" fill="#199A8E"/>
</svg>
