<svg width="17" height="20" viewBox="0 0 17 20" fill="none" xmlns="http://www.w3.org/2000/svg">
<g clip-path="url(#clip0_1_4245)">
<path d="M14.04 19.2C12.956 20.252 11.76 20.088 10.62 19.592C9.40797 19.086 8.29997 19.054 7.01997 19.592C5.42597 20.28 4.57997 20.08 3.61997 19.2C-1.80003 13.62 -1.00003 5.12 5.15997 4.8C6.65397 4.88 7.69997 5.626 8.57997 5.688C9.88797 5.422 11.14 4.66001 12.54 4.76001C14.222 4.896 15.48 5.56 16.32 6.754C12.86 8.83399 13.68 13.394 16.858 14.674C16.222 16.344 15.406 17.994 14.038 19.214L14.04 19.2ZM8.45997 4.74001C8.29797 2.26001 10.308 0.220019 12.62 0.0200195C12.938 2.88001 10.02 5.02 8.45997 4.74001Z" fill="#101623"/>
</g>
<defs>
<clipPath id="clip0_1_4245">
<rect width="16.84" height="20" fill="white"/>
</clipPath>
</defs>
</svg>
