<svg width="257" height="349" viewBox="0 0 257 349" fill="none" xmlns="http://www.w3.org/2000/svg">
<path d="M152.011 -57.6098C158.526 -60.8697 167.067 -59.5435 177.04 -54.1229C186.997 -48.7107 198.27 -39.2733 210.153 -26.5376C233.916 -1.07093 260.039 37.4994 282.876 83.1374C305.713 128.775 320.923 172.806 327.06 207.092C330.13 224.238 330.925 238.918 329.288 250.133C327.648 261.364 323.589 268.996 317.075 272.256C310.56 275.516 302.018 274.189 292.046 268.768C282.088 263.356 270.815 253.919 258.931 241.183C235.169 215.717 209.046 177.147 186.209 131.509C163.372 85.8713 148.162 41.8399 142.024 7.5538C138.955 -9.59245 138.16 -24.273 139.798 -35.4872C141.438 -46.7187 145.497 -54.3497 152.011 -57.6098Z" stroke="#66DED4"/>
<path d="M60.0678 49.2428C62.3694 42.3309 69.3465 37.2293 80.2311 34.0105C91.099 30.7967 105.743 29.4989 123.152 30.1016C157.962 31.3066 203.707 40.1078 252.126 56.2306C300.545 72.3532 342.435 92.7329 371.018 112.637C385.313 122.591 396.256 132.409 403.028 141.496C409.81 150.598 412.337 158.864 410.035 165.776C407.734 172.688 400.756 177.789 389.871 181.008C379.003 184.222 364.359 185.52 346.95 184.918C312.14 183.713 266.395 174.912 217.976 158.789C169.557 142.666 127.667 122.286 99.0834 102.382C84.7888 92.4284 73.8462 82.6097 67.0744 73.5221C60.2923 64.4205 57.7662 56.1547 60.0678 49.2428Z" stroke="#66DED4"/>
<path d="M292.623 -67.1518C299.535 -64.8501 304.636 -57.8731 307.855 -46.9884C311.069 -36.1206 312.367 -21.4762 311.764 -4.06791C310.559 30.7423 301.758 76.4878 285.635 124.907C269.512 173.326 249.133 215.215 229.229 243.799C219.275 258.093 209.457 269.036 200.369 275.808C191.268 282.59 183.002 285.117 176.09 282.816C169.178 280.514 164.077 273.536 160.858 262.651C157.644 251.784 156.345 237.139 156.948 219.731C158.153 184.92 166.954 139.176 183.077 90.7567C199.199 42.3376 219.579 0.447668 239.483 -28.1361C249.437 -42.4307 259.256 -53.3734 268.343 -60.1451C277.445 -66.9272 285.711 -69.4533 292.623 -67.1518Z" stroke="#66DED4"/>
</svg>
