<svg width="43" height="43" viewBox="0 0 43 43" fill="none" xmlns="http://www.w3.org/2000/svg">
<circle cx="21.5" cy="21.5" r="21.5" transform="matrix(-1 0 0 1 43 0)" fill="#E8F3F1"/>
<mask id="mask0_1_402" style="mask-type:luminance" maskUnits="userSpaceOnUse" x="10" y="11" width="22" height="22">
<path fill-rule="evenodd" clip-rule="evenodd" d="M32 11H10.507V32.4938H32V11Z" fill="white"/>
</mask>
<g mask="url(#mask0_1_402)">
<path fill-rule="evenodd" clip-rule="evenodd" d="M26.8916 29.675C26.3116 29.675 25.7646 29.895 25.1856 30.128C21.6386 31.768 17.4436 31.022 14.7106 28.29C11.1046 24.682 11.1046 18.813 14.7106 15.207C16.4566 13.461 18.7786 12.5 21.2506 12.5C23.7236 12.5 26.0466 13.462 27.7916 15.208C30.5256 17.94 31.2696 22.135 29.6446 25.648C29.4106 26.227 29.1846 26.791 29.1846 27.377C29.1846 27.962 29.3856 28.551 29.5626 29.071C29.7086 29.499 29.9296 30.145 29.7876 30.287C29.6486 30.431 28.9986 30.204 28.5696 30.057C28.0546 29.881 27.4706 29.679 26.8916 29.675ZM21.2756 32.494C22.8036 32.494 24.3416 32.171 25.7806 31.505C26.2046 31.335 26.6016 31.175 26.8866 31.175C27.2146 31.177 27.6556 31.329 28.0816 31.476C28.9556 31.776 30.0436 32.15 30.8486 31.348C31.6506 30.545 31.2806 29.46 30.9826 28.587C30.8356 28.157 30.6846 27.713 30.6846 27.377C30.6846 27.101 30.8176 26.749 31.0216 26.242C32.8946 22.197 32.0286 17.322 28.8516 14.147C26.8236 12.118 24.1246 11 21.2516 11C18.3786 11 15.6786 12.117 13.6506 14.146C9.45859 18.338 9.45859 25.158 13.6506 29.35C15.7056 31.406 18.4726 32.494 21.2756 32.494Z" fill="#199A8E"/>
</g>
<path fill-rule="evenodd" clip-rule="evenodd" d="M17.3037 23.1631C17.8557 23.1631 18.3077 22.7161 18.3077 22.1631C18.3077 21.6101 17.8647 21.1631 17.3127 21.1631H17.3037C16.7517 21.1631 16.3037 21.6101 16.3037 22.1631C16.3037 22.7161 16.7517 23.1631 17.3037 23.1631Z" fill="#199A8E"/>
<path fill-rule="evenodd" clip-rule="evenodd" d="M21.3125 23.1631C21.8645 23.1631 22.3165 22.7161 22.3165 22.1631C22.3165 21.6101 21.8745 21.1631 21.3215 21.1631H21.3125C20.7605 21.1631 20.3125 21.6101 20.3125 22.1631C20.3125 22.7161 20.7605 23.1631 21.3125 23.1631Z" fill="#199A8E"/>
<path fill-rule="evenodd" clip-rule="evenodd" d="M25.3217 23.1631C25.8737 23.1631 26.3257 22.7161 26.3257 22.1631C26.3257 21.6101 25.8827 21.1631 25.3307 21.1631H25.3217C24.7697 21.1631 24.3217 21.6101 24.3217 22.1631C24.3217 22.7161 24.7697 23.1631 25.3217 23.1631Z" fill="#199A8E"/>
</svg>
