<svg width="43" height="43" viewBox="0 0 43 43" fill="none" xmlns="http://www.w3.org/2000/svg">
<circle cx="21.5" cy="21.5" r="21.5" transform="matrix(-1 0 0 1 43 0)" fill="#E8F3F1"/>
<path d="M21 21.1738C25.3384 21.1738 28.9997 21.8789 29 24.5986C29 27.3197 25.3146 28 21 28C16.6625 28 13.0002 27.295 13 24.5752C13 21.8542 16.6854 21.1738 21 21.1738ZM21 8C23.9391 8 26.2939 10.354 26.2939 13.291C26.2939 16.228 23.9391 18.583 21 18.583C18.0619 18.583 15.7061 16.228 15.7061 13.291C15.7061 10.354 18.0619 8 21 8Z" fill="#199A8E"/>
</svg>
