<svg width="43" height="43" viewBox="0 0 43 43" fill="none" xmlns="http://www.w3.org/2000/svg">
<circle cx="21.5" cy="21.5" r="21.5" transform="matrix(-1 0 0 1 43 0)" fill="#E8F3F1"/>
<path fill-rule="evenodd" clip-rule="evenodd" d="M18.2842 25.9736H25.5042C25.9182 25.9736 26.2542 25.6376 26.2542 25.2236C26.2542 24.8096 25.9182 24.4736 25.5042 24.4736H18.2842C17.8702 24.4736 17.5342 24.8096 17.5342 25.2236C17.5342 25.6376 17.8702 25.9736 18.2842 25.9736Z" fill="#199A8E"/>
<path fill-rule="evenodd" clip-rule="evenodd" d="M18.2842 21.7871H25.5042C25.9182 21.7871 26.2542 21.4511 26.2542 21.0371C26.2542 20.6231 25.9182 20.2871 25.5042 20.2871H18.2842C17.8702 20.2871 17.5342 20.6231 17.5342 21.0371C17.5342 21.4511 17.8702 21.7871 18.2842 21.7871Z" fill="#199A8E"/>
<path fill-rule="evenodd" clip-rule="evenodd" d="M22.7495 17.6104H25.5045C25.9185 17.6104 26.2545 17.2744 26.2545 16.8604C26.2545 16.4464 25.9185 16.1104 25.5045 16.1104H22.7495C22.3355 16.1104 21.9995 16.4464 21.9995 16.8604C21.9995 17.2744 22.3355 17.6104 22.7495 17.6104Z" fill="#199A8E"/>
<mask id="mask0_1_418" style="mask-type:luminance" maskUnits="userSpaceOnUse" x="12" y="11" width="19" height="20">
<path fill-rule="evenodd" clip-rule="evenodd" d="M31 11H12.8353V30.9098H31V11Z" fill="white"/>
</mask>
<g mask="url(#mask0_1_418)">
<path fill-rule="evenodd" clip-rule="evenodd" d="M18.0913 12.5L25.7803 12.504C28.1083 12.518 29.5003 13.958 29.5003 16.357V25.553C29.5003 27.968 28.0953 29.41 25.7443 29.41L18.0553 29.407C15.7273 29.393 14.3353 27.951 14.3353 25.553V16.357C14.3353 13.942 15.7393 12.5 18.0913 12.5ZM25.7433 30.91C28.8873 30.91 31.0003 28.757 31.0003 25.553V16.357C31.0003 13.124 28.9533 11.023 25.7853 11.004L18.0923 11H18.0913C14.9473 11 12.8353 13.153 12.8353 16.357V25.553C12.8353 28.785 14.8823 30.887 18.0503 30.907L25.7433 30.91Z" fill="#199A8E"/>
</g>
</svg>
