<svg width="22" height="20" viewBox="0 0 22 20" fill="none" xmlns="http://www.w3.org/2000/svg">
<path d="M13.532 6.24951L6.79578 12.866C6.55315 13.1004 6.41685 13.4184 6.41685 13.7499C6.41685 14.0814 6.55315 14.3994 6.79578 14.6338C7.0384 14.8682 7.36747 14.9999 7.7106 14.9999C8.05372 14.9999 8.38279 14.8682 8.62542 14.6338L16.6554 6.76728C16.8957 6.53513 17.0863 6.25953 17.2163 5.95622C17.3463 5.65291 17.4132 5.32782 17.4132 4.99951C17.4132 4.67121 17.3463 4.34612 17.2163 4.0428C17.0863 3.73949 16.8957 3.46389 16.6554 3.23174C16.4151 2.9996 16.1299 2.81545 15.8159 2.68981C15.502 2.56418 15.1655 2.49951 14.8257 2.49951C14.486 2.49951 14.1495 2.56418 13.8356 2.68981C13.5216 2.81545 13.2364 2.9996 12.9961 3.23174L4.96614 11.0982C4.23826 11.8015 3.82935 12.7553 3.82935 13.7499C3.82935 14.7445 4.23826 15.6983 4.96614 16.4015C5.69401 17.1048 6.68122 17.4999 7.7106 17.4999C8.73997 17.4999 9.72718 17.1048 10.4551 16.4015L17.0898 9.99951" stroke="#ADADAD" stroke-linecap="round" stroke-linejoin="round"/>
</svg>
