<svg width="24" height="24" viewBox="0 0 24 24" fill="none" xmlns="http://www.w3.org/2000/svg">
<path d="M9.47008 9.47004L14.5301 14.53C15.1801 13.88 15.5801 12.99 15.5801 12C15.5801 10.02 13.9801 8.42004 12.0001 8.42004C11.0101 8.42004 10.1201 8.82004 9.47008 9.47004Z" stroke="#A1A8B0" stroke-width="1.5" stroke-linecap="round" stroke-linejoin="round"/>
<path d="M6.17991 5.76998C7.92991 4.44998 9.92991 3.72998 11.9999 3.72998C15.5299 3.72998 18.8199 5.80998 21.1099 9.40998C22.0099 10.82 22.0099 13.19 21.1099 14.6C20.3199 15.84 19.3999 16.91 18.3999 17.77" stroke="#A1A8B0" stroke-width="1.5" stroke-linecap="round" stroke-linejoin="round"/>
<path d="M15.5801 19.5301C14.4401 20.0101 13.2301 20.2701 12.0001 20.2701C8.47008 20.2701 5.18008 18.1901 2.89008 14.5901C1.99008 13.1801 1.99008 10.8101 2.89008 9.40005C3.22008 8.88005 3.58008 8.39005 3.95008 7.93005" stroke="#A1A8B0" stroke-width="1.5" stroke-linecap="round" stroke-linejoin="round"/>
<path d="M8.49006 12.7C8.75006 14.11 9.90006 15.26 11.3101 15.52" stroke="#A1A8B0" stroke-width="1.5" stroke-linecap="round" stroke-linejoin="round"/>
<path d="M14.53 14.53L22 22" stroke="#A1A8B0" stroke-width="1.5" stroke-linecap="round" stroke-linejoin="round"/>
<path d="M1.99997 2L9.46997 9.47" stroke="#A1A8B0" stroke-width="1.5" stroke-linecap="round" stroke-linejoin="round"/>
</svg>
