<svg width="15" height="16" viewBox="0 0 15 16" fill="none" xmlns="http://www.w3.org/2000/svg">
<path fill-rule="evenodd" clip-rule="evenodd" d="M5.5625 1.62988H9.41875C11.1125 1.62988 12.4812 2.31426 12.5 4.05398V13.7631C12.5 13.8719 12.475 13.9806 12.425 14.0766C12.3438 14.2301 12.2063 14.3452 12.0375 14.3964C11.875 14.4475 11.6938 14.4219 11.5437 14.3324L7.49375 12.2601L3.4375 14.3324C3.34438 14.3829 3.2375 14.4155 3.13125 14.4155C2.78125 14.4155 2.5 14.1213 2.5 13.7631V4.05398C2.5 2.31426 3.875 1.62988 5.5625 1.62988ZM5.1375 6.50365H9.84375C10.1125 6.50365 10.3312 6.27915 10.3312 5.99837C10.3312 5.71694 10.1125 5.49308 9.84375 5.49308H5.1375C4.86875 5.49308 4.65 5.71694 4.65 5.99837C4.65 6.27915 4.86875 6.50365 5.1375 6.50365Z" fill="white"/>
</svg>
